<svg width="20" height="22" viewBox="0 0 20 22" fill="none" xmlns="http://www.w3.org/2000/svg">
<path d="M14.2119 1.237C14.2717 1.04911 14.2551 0.845209 14.1657 0.669443C14.0763 0.493676 13.9213 0.360186 13.7342 0.297868C13.5472 0.23555 13.3431 0.249419 13.1661 0.336473C12.9892 0.423526 12.8537 0.57676 12.7889 0.763003L12.0389 3.012C11.979 3.1999 11.9956 3.4038 12.085 3.57956C12.1744 3.75533 12.3294 3.88882 12.5165 3.95114C12.7036 4.01346 12.9077 3.99959 13.0846 3.91253C13.2615 3.82548 13.3971 3.67225 13.4619 3.486L14.2119 1.237ZM18.7799 1.22C18.9203 1.36063 18.9992 1.55125 18.9992 1.75C18.9992 1.94875 18.9203 2.13938 18.7799 2.28L16.2799 4.78C16.2112 4.85369 16.1284 4.91279 16.0364 4.95378C15.9444 4.99478 15.8451 5.01682 15.7444 5.01859C15.6437 5.02037 15.5437 5.00185 15.4503 4.96413C15.3569 4.9264 15.272 4.87026 15.2008 4.79904C15.1296 4.72782 15.0735 4.64299 15.0357 4.5496C14.998 4.45621 14.9795 4.35618 14.9813 4.25548C14.983 4.15478 15.0051 4.05546 15.0461 3.96346C15.0871 3.87147 15.1462 3.78866 15.2199 3.72L17.7199 1.22C17.8605 1.07955 18.0511 1.00066 18.2499 1.00066C18.4486 1.00066 18.6392 1.07955 18.7799 1.22ZM6.07586 3.318C6.23994 2.97729 6.48465 2.68175 6.78878 2.45699C7.0929 2.23224 7.44726 2.08506 7.82112 2.02822C8.19499 1.97137 8.57707 2.00658 8.93426 2.13079C9.29144 2.255 9.61293 2.46446 9.87086 2.741L16.8769 10.247C17.1298 10.5181 17.3143 10.8457 17.4149 11.2026C17.5155 11.5594 17.5292 11.9352 17.4551 12.2985C17.3809 12.6617 17.2209 13.002 16.9884 13.2909C16.756 13.5797 16.4578 13.8088 16.1189 13.959L12.6989 15.475C13.1148 16.4426 13.1323 17.5352 12.7476 18.5157C12.3629 19.4961 11.607 20.2853 10.6441 20.7118C9.68111 21.1384 8.58876 21.168 7.60413 20.7941C6.6195 20.4203 5.82205 19.6732 5.38486 18.715L3.96786 19.343C3.64378 19.4866 3.28452 19.5313 2.93513 19.4715C2.58574 19.4118 2.26177 19.2502 2.00386 19.007L0.56486 17.65C0.28664 17.3877 0.0991535 17.0437 0.0295721 16.6678C-0.0400093 16.2918 0.0119291 15.9035 0.17786 15.559L6.07586 3.319V3.318ZM6.75786 18.107C7.04016 18.691 7.53838 19.1424 8.14731 19.3659C8.75623 19.5894 9.42818 19.5674 10.0212 19.3047C10.6143 19.042 11.082 18.5591 11.3256 17.9579C11.5693 17.3568 11.5697 16.6845 11.3269 16.083L6.75686 18.107H6.75786ZM8.77386 3.765C8.68238 3.66698 8.56839 3.59273 8.44175 3.54868C8.31511 3.50463 8.17965 3.49211 8.04709 3.5122C7.91452 3.53229 7.78885 3.58439 7.68095 3.66399C7.57306 3.74358 7.48619 3.84827 7.42786 3.969L1.52986 16.21C1.50203 16.2674 1.49322 16.3322 1.50473 16.395C1.51624 16.4577 1.54746 16.5152 1.59386 16.559L3.03286 17.915C3.07582 17.9555 3.12975 17.9824 3.18791 17.9923C3.24608 18.0023 3.30589 17.9949 3.35986 17.971L15.5109 12.588C15.6312 12.5348 15.7371 12.4536 15.8196 12.3512C15.9022 12.2487 15.9591 12.128 15.9855 11.9991C16.0119 11.8702 16.0071 11.7369 15.9715 11.6102C15.9359 11.4836 15.8706 11.3673 15.7809 11.271L8.77386 3.765ZM15.9999 7.249C15.9999 7.05009 16.0789 6.85932 16.2195 6.71867C16.3602 6.57802 16.5509 6.499 16.7499 6.499H18.7499C18.9488 6.499 19.1395 6.57802 19.2802 6.71867C19.4208 6.85932 19.4999 7.05009 19.4999 7.249C19.4999 7.44791 19.4208 7.63868 19.2802 7.77933C19.1395 7.91998 18.9488 7.999 18.7499 7.999H16.7499C16.5509 7.999 16.3602 7.91998 16.2195 7.77933C16.0789 7.63868 15.9999 7.44791 15.9999 7.249Z" fill="#465FAC"/>
</svg>
