<svg width="13" height="12" viewBox="0 0 13 12" fill="none" xmlns="http://www.w3.org/2000/svg">
<path fill-rule="evenodd" clip-rule="evenodd" d="M0.000124437 6C0.000124454 5.80108 0.0791421 5.61032 0.219794 5.46967C0.360446 5.32901 0.551213 5.25 0.750125 5.25L9.43962 5.25L6.21912 2.031C6.14939 1.96127 6.09408 1.87848 6.05634 1.78737C6.0186 1.69626 5.99918 1.59861 5.99918 1.5C5.99918 1.40138 6.0186 1.30373 6.05634 1.21262C6.09408 1.12151 6.14939 1.03873 6.21912 0.968997C6.28886 0.899266 6.37164 0.843952 6.46275 0.806213C6.55386 0.768474 6.65151 0.749051 6.75012 0.749051C6.84874 0.749051 6.94639 0.768474 7.0375 0.806213C7.12861 0.843952 7.21139 0.899266 7.28113 0.968998L11.7811 5.469C11.851 5.53867 11.9064 5.62143 11.9442 5.71255C11.982 5.80367 12.0015 5.90135 12.0015 6C12.0015 6.09865 11.982 6.19633 11.9442 6.28745C11.9064 6.37857 11.851 6.46133 11.7811 6.531L7.28112 11.031C7.14029 11.1718 6.94929 11.2509 6.75012 11.2509C6.55096 11.2509 6.35995 11.1718 6.21912 11.031C6.07829 10.8902 5.99918 10.6992 5.99918 10.5C5.99918 10.3008 6.07829 10.1098 6.21912 9.969L9.43962 6.75L0.750124 6.75C0.551213 6.75 0.360446 6.67098 0.219794 6.53033C0.079142 6.38968 0.000124419 6.19891 0.000124437 6Z" fill="#465FAC"/>
</svg>
