<svg width="201" height="32" viewBox="0 0 201 32" fill="none" xmlns="http://www.w3.org/2000/svg">
<g clip-path="url(#clip0_231_1519)">
<path d="M12.9419 12.41H8.24381V31.6454H4.96403V12.41H0.354614V9.3075H12.9419V12.41Z" fill="white"/>
<path d="M29.9612 28.6316V31.6454H18.7036V9.3075H29.6067V12.41H21.8947V18.8809H28.9862V21.8061H21.8947V28.6316H29.9612Z" fill="white"/>
<path d="M48.9308 9.3075V31.6454H45.7397V12.41H41.0416C40.6871 18.8809 40.4211 24.0222 39.9779 26.6815C39.4461 30.759 37.4959 32 34.3934 32V29.0748C35.8117 29.0748 36.5209 28.1884 36.8754 25.8837C37.23 23.579 37.4959 18.5263 37.9391 9.3075H48.9308Z" fill="white"/>
<path d="M67.8117 28.6316V31.6454H56.5541V9.3075H67.4571V12.41H59.7452V18.8809H66.8366V21.8061H59.7452V28.6316H67.8117Z" fill="white"/>
<path d="M87.313 24.9086C87.313 29.3407 84.9197 31.7341 80.5762 31.7341H74.4598V9.3075H86.072V12.41H77.651V18.1718H80.5762C84.831 18.1718 87.313 20.831 87.313 24.9086ZM84.0333 24.9086C84.0333 22.4266 82.615 21.1856 80.3989 21.1856H77.651V28.6316H80.3989C82.5263 28.6316 84.0333 27.3906 84.0333 24.9086Z" fill="white"/>
<path d="M101.939 27.2133H96L94.9363 31.7341H91.5679L97.1524 9.39615H100.609L106.194 31.7341H102.825L101.939 27.2133ZM101.319 24.1995L99.9003 18.1718C99.5457 16.6648 99.1911 14.5374 99.1025 13.3851H99.0138C98.8366 14.5374 98.5706 16.6648 98.2161 18.1718L96.8864 24.1995H101.319Z" fill="white"/>
<path d="M122.859 9.3075V31.7341H119.668V23.4903C118.693 23.8449 117.629 24.0222 116.654 24.0222C112.576 24.0222 110.094 21.4515 110.094 16.9308V9.39614H113.285V17.0194C113.285 19.7673 114.615 21.0083 117.008 21.0083C117.895 21.0083 118.781 20.9197 119.668 20.5651V9.3075H122.859Z" fill="white"/>
<path d="M141.828 28.6316V31.6454H130.571V9.3075H141.474V12.41H133.762V18.8809H140.853V21.8061H133.762V28.6316H141.828Z" fill="white"/>
<path d="M161.152 9.3075V31.6454H157.961V21.8948H151.668V31.7341H148.477V9.3075H151.668V18.7923H157.961V9.3075H161.152Z" fill="white"/>
<path d="M181.629 9.3075V31.6454H178.438V21.8948H172.144V31.7341H168.953V9.3075H172.144V18.7923H178.438V9.3075H181.629Z" fill="white"/>
<path d="M192.443 23.0471C189.873 22.1607 188.454 19.856 188.454 16.4876C188.454 11.9668 190.936 9.3075 195.103 9.3075H200.864V31.6454H197.673V23.579H195.723L191.291 31.6454H187.745L192.443 23.0471ZM197.585 20.5651V12.41H195.103C192.887 12.41 191.646 13.7396 191.646 16.4876C191.646 19.1468 192.798 20.5651 195.014 20.5651H197.585Z" fill="white"/>
<path d="M2.65928 1.15234L1.59557 4.52076C1.41828 5.31855 1.06371 5.49583 0.443213 5.49583H0.265928V4.96398H0.443213C0.797784 4.96398 0.886427 4.78669 1.06371 4.34348L1.15235 4.16619L0 1.15234H0.620499L1.32964 3.27977L1.95014 1.15234H2.65928Z" fill="white"/>
<path d="M12.6759 3.54572L12.4099 3.98893V5.49585H11.7894V1.15236H12.4099V3.01386L12.6759 2.482L13.5623 1.06372H14.2714L13.0304 2.92522L14.4487 5.40721H13.7396L12.6759 3.54572Z" fill="white"/>
<path d="M26.061 2.57063C26.061 3.45705 25.6178 3.98891 24.7313 3.98891H24.1995V5.49583H23.579V1.15234H24.7313C25.6178 1.15234 26.061 1.59556 26.061 2.57063ZM25.4405 2.57063C25.4405 2.03877 25.1745 1.77284 24.7313 1.77284H24.1995V3.36841H24.7313C25.1745 3.36841 25.4405 3.10248 25.4405 2.57063Z" fill="white"/>
<path d="M36.6981 4.60941H35.5457L35.3684 5.49583H34.7479L35.8116 1.15234H36.5208L37.5845 5.49583H36.964L36.6981 4.60941ZM36.6094 3.98891L36.3435 2.83655C36.2548 2.57063 36.2548 2.12741 36.1662 1.95013C36.1662 2.21606 36.0776 2.57063 35.9889 2.83655L35.723 3.98891H36.6094Z" fill="white"/>
<path d="M46.3601 0.265928C46.3601 0.0886427 46.4487 0 46.626 0C46.8033 0 46.9806 0.0886427 46.9806 0.265928C46.9806 0.443213 46.892 0.531856 46.626 0.531856C46.4487 0.620499 46.3601 0.531856 46.3601 0.265928ZM47.4238 1.15235V5.49584H46.8033V1.15235H47.4238ZM47.2465 0.265928C47.2465 0.0886427 47.3352 0 47.6011 0C47.6897 0 47.867 0.0886427 47.867 0.265928C47.867 0.443213 47.7784 0.531856 47.6011 0.531856C47.3352 0.620499 47.2465 0.531856 47.2465 0.265928Z" fill="white"/>
<path d="M59.3906 1.15234V5.49583H58.7701V3.5457H57.5291V5.49583H56.9086V1.15234H57.5291V3.01384H58.7701V1.15234H59.3906Z" fill="white"/>
<path d="M68.8754 4.16621V2.39336C68.8754 1.50693 69.4072 1.06372 70.1164 1.06372C70.9142 1.06372 71.3574 1.50693 71.446 2.39336H70.8255C70.8255 1.8615 70.5596 1.68422 70.1164 1.68422C69.7618 1.68422 69.4959 1.95015 69.4959 2.482V4.25486C69.4959 4.78671 69.7618 5.05264 70.1164 5.05264C70.5596 5.05264 70.7369 4.78671 70.8255 4.3435H71.446C71.446 5.22993 70.9142 5.67314 70.1164 5.67314C69.3186 5.5845 68.8754 5.05264 68.8754 4.16621Z" fill="white"/>
<path d="M80.7534 1.15234H81.3739V2.9252H81.9058C82.7922 2.9252 83.2354 3.45705 83.2354 4.25484C83.2354 5.14126 82.7922 5.58448 81.9058 5.58448H80.7534V1.15234ZM81.9058 4.87534C82.349 4.87534 82.6149 4.60941 82.6149 4.16619C82.6149 3.72298 82.349 3.45705 81.9058 3.45705H81.3739V4.87534H81.9058Z" fill="white"/>
<path d="M93.3408 3.54572L93.0748 3.98893V5.49585H92.4543V1.15236H93.0748V3.01386L93.3408 2.482L94.2272 1.06372H94.9363L93.6953 2.92522L95.1136 5.40721H94.4045L93.3408 3.54572Z" fill="white"/>
<path d="M106.46 4.87534V5.49583H104.244V1.15234H106.371V1.77284H104.864V3.01384H106.283V3.5457H104.864V4.87534H106.46Z" fill="white"/>
<path d="M128.089 5.49583H125.873V1.15234H126.493V4.87534H127.734V1.15234H128.355V4.87534H128.709V6.20498H128.089V5.49583Z" fill="white"/>
<path d="M137.928 1.15236H138.548V3.01386C138.548 3.36843 138.548 3.90029 138.46 4.25486C138.548 4.07757 138.637 3.723 138.726 3.45707L139.789 1.06372H140.41V5.40721H139.789V3.54572C139.789 3.19114 139.789 2.65929 139.878 2.30472C139.789 2.57065 139.701 2.83657 139.612 3.1025L138.548 5.49585H137.928V1.15236Z" fill="white"/>
<path d="M151.402 5.40721H151.313C150.427 5.40721 149.806 4.87535 149.806 3.81164V2.83657C149.806 1.77286 150.427 1.241 151.313 1.241H151.402V0.797791H152.022V1.241H152.111C152.997 1.241 153.618 1.8615 153.618 2.83657V3.81164C153.618 4.78671 152.997 5.40721 152.111 5.40721H152.022V5.85042H151.402V5.40721ZM151.402 4.78671V1.8615H151.313C150.781 1.8615 150.515 2.12743 150.515 2.83657V3.81164C150.515 4.52078 150.87 4.78671 151.313 4.78671H151.402ZM152.111 4.78671C152.643 4.78671 152.997 4.52078 152.997 3.81164V2.83657C152.997 2.12743 152.643 1.8615 152.111 1.8615H152.022V4.78671H152.111Z" fill="white"/>
<path d="M165.407 2.57063C165.407 3.45705 164.964 3.98891 164.078 3.98891H163.546V5.49583H162.925V1.15234H164.078C164.875 1.15234 165.407 1.59556 165.407 2.57063ZM164.698 2.57063C164.698 2.03877 164.432 1.77284 163.989 1.77284H163.457V3.36841H163.989C164.521 3.36841 164.698 3.10248 164.698 2.57063Z" fill="white"/>
<path d="M174.537 4.07757V2.482C174.537 1.59558 175.069 1.06372 175.867 1.06372C176.665 1.06372 177.197 1.59558 177.197 2.482V4.07757C177.197 4.964 176.665 5.49585 175.867 5.49585C175.069 5.49585 174.537 4.964 174.537 4.07757ZM176.576 4.07757V2.482C176.576 1.95015 176.31 1.59558 175.867 1.59558C175.424 1.59558 175.158 1.8615 175.158 2.482V4.07757C175.158 4.60943 175.424 4.964 175.867 4.964C176.31 4.964 176.576 4.60943 176.576 4.07757Z" fill="white"/>
<path d="M189.163 4.25484C189.163 5.05262 188.632 5.49583 187.922 5.49583H186.681V1.15234H187.834C188.543 1.15234 188.986 1.59556 188.986 2.3047C188.986 2.74791 188.809 3.10248 188.543 3.27977C188.897 3.36841 189.163 3.72298 189.163 4.25484ZM187.302 1.6842V2.9252H187.834C188.188 2.9252 188.366 2.74791 188.366 2.3047C188.366 1.86149 188.188 1.6842 187.745 1.6842H187.302ZM188.543 4.25484C188.543 3.81162 188.277 3.5457 187.834 3.5457H187.302V4.87534H187.834C188.277 4.87534 188.543 4.69805 188.543 4.25484Z" fill="white"/>
<path d="M200.598 4.87534V5.49583H198.382V1.15234H200.51V1.77284H199.003V3.01384H200.421V3.5457H199.003V4.87534H200.598Z" fill="white"/>
</g>
<defs>
<clipPath id="clip0_231_1519">
<rect width="200.864" height="32" fill="white"/>
</clipPath>
</defs>
</svg>
