<svg width="164" height="26" viewBox="0 0 164 26" fill="none" xmlns="http://www.w3.org/2000/svg">
<g clip-path="url(#clip0_269_2156)">
<path d="M10.5667 10.083H6.73086V25.7118H4.05301V10.083H0.289551V7.56226H10.5667V10.083Z" fill="white"/>
<path d="M24.4625 23.2631V25.7118H15.271V7.56226H24.173V10.083H17.8765V15.3406H23.6664V17.7174H17.8765V23.2631H24.4625Z" fill="white"/>
<path d="M39.9507 7.56226V25.7118H37.3452V10.083H33.5094C33.2199 15.3406 33.0027 19.5179 32.6409 21.6786C32.2066 24.9916 30.6144 25.9999 28.0813 25.9999V23.6232C29.2393 23.6232 29.8183 22.903 30.1078 21.0304C30.3973 19.1578 30.6144 15.0526 30.9763 7.56226H39.9507Z" fill="white"/>
<path d="M55.3663 23.2631V25.7118H46.1748V7.56226H55.0768V10.083H48.7803V15.3406H54.5702V17.7174H48.7803V23.2631H55.3663Z" fill="white"/>
<path d="M71.2887 20.2382C71.2887 23.8393 69.3346 25.7839 65.7883 25.7839H60.7944V7.56226H70.2755V10.083H63.3999V14.7645H65.7883C69.2622 14.7645 71.2887 16.9251 71.2887 20.2382ZM68.6109 20.2382C68.6109 18.2215 67.4529 17.2132 65.6435 17.2132H63.3999V23.2631H65.6435C67.3805 23.2631 68.6109 22.2548 68.6109 20.2382Z" fill="white"/>
<path d="M83.2305 22.1107H78.3814L77.5129 25.7839H74.7627L79.3223 7.63428H82.1449L86.7044 25.7839H83.9542L83.2305 22.1107ZM82.7239 19.662L81.5659 14.7645C81.2764 13.5401 80.9869 11.8116 80.9145 10.8753H80.8421C80.6974 11.8116 80.4803 13.5401 80.1908 14.7645L79.1051 19.662H82.7239Z" fill="white"/>
<path d="M100.311 7.56226V25.7839H97.7053V19.0858C96.9092 19.3739 96.0407 19.5179 95.2446 19.5179C91.9154 19.5179 89.8889 17.4293 89.8889 13.7562V7.63428H92.4944V13.8282C92.4944 16.0609 93.58 17.0692 95.5341 17.0692C96.2579 17.0692 96.9816 16.9972 97.7053 16.7091V7.56226H100.311Z" fill="white"/>
<path d="M115.799 23.2631V25.7118H106.607V7.56226H115.509V10.083H109.213V15.3406H115.003V17.7174H109.213V23.2631H115.799Z" fill="white"/>
<path d="M131.576 7.56226V25.7118H128.971V17.7894H123.832V25.7839H121.227V7.56226H123.832V15.2686H128.971V7.56226H131.576Z" fill="white"/>
<path d="M148.295 7.56226V25.7118H145.689V17.7894H140.551V25.7839H137.945V7.56226H140.551V15.2686H145.689V7.56226H148.295Z" fill="white"/>
<path d="M157.124 18.7257C155.026 18.0055 153.868 16.1329 153.868 13.3961C153.868 9.72292 155.894 7.56226 159.296 7.56226H164V25.7118H161.394V19.1578H159.802L156.184 25.7118H153.289L157.124 18.7257ZM161.322 16.7091V10.083H159.296C157.486 10.083 156.473 11.1634 156.473 13.3961C156.473 15.5567 157.414 16.7091 159.223 16.7091H161.322Z" fill="white"/>
<path d="M2.17123 0.936279L1.30274 3.67312C1.15799 4.32132 0.868491 4.46536 0.361871 4.46536H0.217123V4.03323H0.361871C0.651368 4.03323 0.723742 3.88919 0.868491 3.52908L0.940865 3.38503L0 0.936279H0.50662L1.08561 2.66481L1.59223 0.936279H2.17123Z" fill="white"/>
<path d="M10.3495 2.88088L10.1324 3.24099V4.46537H9.62573V0.93628H10.1324V2.44875L10.3495 2.01661L11.0732 0.864258H11.6522L10.639 2.37672L11.797 4.39334H11.218L10.3495 2.88088Z" fill="white"/>
<path d="M21.2779 2.08863C21.2779 2.80886 20.9161 3.24099 20.1923 3.24099H19.7581V4.46536H19.2515V0.936279H20.1923C20.9161 0.936279 21.2779 1.29639 21.2779 2.08863ZM20.7713 2.08863C20.7713 1.6565 20.5542 1.44043 20.1923 1.44043H19.7581V2.73683H20.1923C20.5542 2.73683 20.7713 2.52077 20.7713 2.08863Z" fill="white"/>
<path d="M29.9628 3.74514H29.022L28.8772 4.46536H28.3706L29.2391 0.936279H29.8181L30.6866 4.46536H30.18L29.9628 3.74514ZM29.8905 3.24099L29.6733 2.3047C29.601 2.08863 29.601 1.72852 29.5286 1.58448C29.5286 1.80055 29.4562 2.08863 29.3838 2.3047L29.1667 3.24099H29.8905Z" fill="white"/>
<path d="M37.8518 0.216066C37.8518 0.0720222 37.9242 0 38.0689 0C38.2137 0 38.3584 0.0720222 38.3584 0.216066C38.3584 0.360111 38.2861 0.432133 38.0689 0.432133C37.9242 0.504155 37.8518 0.432133 37.8518 0.216066ZM38.7203 0.936288V4.46537H38.2137V0.936288H38.7203ZM38.5755 0.216066C38.5755 0.0720222 38.6479 0 38.865 0C38.9374 0 39.0822 0.0720222 39.0822 0.216066C39.0822 0.360111 39.0098 0.432133 38.865 0.432133C38.6479 0.504155 38.5755 0.432133 38.5755 0.216066Z" fill="white"/>
<path d="M48.4908 0.936279V4.46536H47.9842V2.88088H46.971V4.46536H46.4644V0.936279H46.971V2.44874H47.9842V0.936279H48.4908Z" fill="white"/>
<path d="M56.2349 3.38503V1.94459C56.2349 1.22437 56.6691 0.864258 57.2481 0.864258C57.8995 0.864258 58.2613 1.22437 58.3337 1.94459H57.8271C57.8271 1.51246 57.61 1.36841 57.2481 1.36841C56.9586 1.36841 56.7415 1.58448 56.7415 2.01661V3.45706C56.7415 3.88919 56.9586 4.10526 57.2481 4.10526C57.61 4.10526 57.7547 3.88919 57.8271 3.52908H58.3337C58.3337 4.2493 57.8995 4.60941 57.2481 4.60941C56.5967 4.53739 56.2349 4.10526 56.2349 3.38503Z" fill="white"/>
<path d="M65.9329 0.936279H66.4395V2.37672H66.8737C67.5975 2.37672 67.9593 2.80886 67.9593 3.45706C67.9593 4.17728 67.5975 4.53739 66.8737 4.53739H65.9329V0.936279ZM66.8737 3.96121C67.2356 3.96121 67.4527 3.74514 67.4527 3.38503C67.4527 3.02492 67.2356 2.80886 66.8737 2.80886H66.4395V3.96121H66.8737Z" fill="white"/>
<path d="M76.2101 2.88088L75.9929 3.24099V4.46537H75.4863V0.93628H75.9929V2.44875L76.2101 2.01661L76.9338 0.864258H77.5128L76.4996 2.37672L77.6576 4.39334H77.0786L76.2101 2.88088Z" fill="white"/>
<path d="M86.9214 3.96121V4.46536H85.1121V0.936279H86.849V1.44043H85.6187V2.44874H86.7767V2.88088H85.6187V3.96121H86.9214Z" fill="white"/>
<path d="M104.581 4.46536H102.771V0.936279H103.278V3.96121H104.291V0.936279H104.798V3.96121H105.087V5.04154H104.581V4.46536Z" fill="white"/>
<path d="M112.614 0.93628H113.121V2.44875C113.121 2.73683 113.121 3.16897 113.048 3.45706C113.121 3.31301 113.193 3.02492 113.266 2.80886L114.134 0.864258H114.641V4.39334H114.134V2.88088C114.134 2.59279 114.134 2.16066 114.206 1.87257C114.134 2.08863 114.062 2.3047 113.989 2.52077L113.121 4.46537H112.614V0.93628Z" fill="white"/>
<path d="M123.615 4.39335H123.543C122.819 4.39335 122.312 3.96121 122.312 3.09695V2.3047C122.312 1.44044 122.819 1.0083 123.543 1.0083H123.615V0.648193H124.122V1.0083H124.194C124.918 1.0083 125.425 1.51246 125.425 2.3047V3.09695C125.425 3.88919 124.918 4.39335 124.194 4.39335H124.122V4.75346H123.615V4.39335ZM123.615 3.88919V1.51246H123.543C123.109 1.51246 122.891 1.72853 122.891 2.3047V3.09695C122.891 3.67312 123.181 3.88919 123.543 3.88919H123.615ZM124.194 3.88919C124.628 3.88919 124.918 3.67312 124.918 3.09695V2.3047C124.918 1.72853 124.628 1.51246 124.194 1.51246H124.122V3.88919H124.194Z" fill="white"/>
<path d="M135.05 2.08863C135.05 2.80886 134.689 3.24099 133.965 3.24099H133.531V4.46536H133.024V0.936279H133.965C134.616 0.936279 135.05 1.29639 135.05 2.08863ZM134.471 2.08863C134.471 1.6565 134.254 1.44043 133.892 1.44043H133.458V2.73683H133.892C134.327 2.73683 134.471 2.52077 134.471 2.08863Z" fill="white"/>
<path d="M142.505 3.31301V2.01661C142.505 1.29639 142.939 0.864258 143.59 0.864258C144.242 0.864258 144.676 1.29639 144.676 2.01661V3.31301C144.676 4.03323 144.242 4.46537 143.59 4.46537C142.939 4.46537 142.505 4.03323 142.505 3.31301ZM144.169 3.31301V2.01661C144.169 1.58448 143.952 1.29639 143.59 1.29639C143.229 1.29639 143.012 1.51246 143.012 2.01661V3.31301C143.012 3.74514 143.229 4.03323 143.59 4.03323C143.952 4.03323 144.169 3.74514 144.169 3.31301Z" fill="white"/>
<path d="M154.447 3.45706C154.447 4.10525 154.012 4.46536 153.433 4.46536H152.42V0.936279H153.361C153.94 0.936279 154.302 1.29639 154.302 1.87257C154.302 2.23268 154.157 2.52077 153.94 2.66481C154.23 2.73683 154.447 3.02492 154.447 3.45706ZM152.927 1.36841V2.37672H153.361C153.651 2.37672 153.795 2.23268 153.795 1.87257C153.795 1.51246 153.651 1.36841 153.289 1.36841H152.927ZM153.94 3.45706C153.94 3.09694 153.723 2.88088 153.361 2.88088H152.927V3.96121H153.361C153.723 3.96121 153.94 3.81717 153.94 3.45706Z" fill="white"/>
<path d="M163.783 3.96121V4.46536H161.974V0.936279H163.711V1.44043H162.48V2.44874H163.638V2.88088H162.48V3.96121H163.783Z" fill="white"/>
</g>
<defs>
<clipPath id="clip0_269_2156">
<rect width="164" height="26" fill="white"/>
</clipPath>
</defs>
</svg>
