<svg width="24" height="24" viewBox="0 0 24 24" fill="none" xmlns="http://www.w3.org/2000/svg">
<g clip-path="url(#clip0_38_1867)">
<path d="M17.7646 6.23549C17.6601 6.13095 17.5361 6.04802 17.3996 5.99144C17.263 5.93485 17.1167 5.90573 16.9689 5.90573C16.8211 5.90573 16.6747 5.93485 16.5382 5.99144C16.4016 6.04802 16.2776 6.13095 16.1731 6.23549L12.0001 10.41L7.82712 6.23624C7.61607 6.02519 7.32983 5.90663 7.03137 5.90663C6.7329 5.90663 6.44666 6.02519 6.23562 6.23624C6.02457 6.44729 5.90601 6.73353 5.90601 7.03199C5.90601 7.33046 6.02457 7.6167 6.23562 7.82774L10.4101 12L6.23637 16.173C6.13187 16.2775 6.04897 16.4015 5.99242 16.5381C5.93586 16.6746 5.90676 16.821 5.90676 16.9687C5.90676 17.2672 6.02532 17.5534 6.23637 17.7645C6.44741 17.9755 6.73365 18.0941 7.03212 18.0941C7.33058 18.0941 7.61682 17.9755 7.82787 17.7645L12.0001 13.59L16.1731 17.7637C16.3842 17.9748 16.6704 18.0934 16.9689 18.0934C17.2673 18.0934 17.5536 17.9748 17.7646 17.7637C17.9757 17.5527 18.0942 17.2665 18.0942 16.968C18.0942 16.6695 17.9757 16.3833 17.7646 16.1722L13.5901 12L17.7639 7.82699C17.8684 7.72252 17.9513 7.59846 18.0079 7.46193C18.0645 7.32539 18.0936 7.17904 18.0936 7.03124C18.0936 6.88344 18.0645 6.73709 18.0079 6.60056C17.9513 6.46402 17.8684 6.33997 17.7639 6.23549H17.7646Z" fill="white"/>
<path d="M4.5 0.75C4.00754 0.75 3.51991 0.846997 3.06494 1.03545C2.60997 1.22391 2.19657 1.50013 1.84835 1.84835C1.14509 2.55161 0.75 3.50544 0.75 4.5V19.5C0.75 20.4946 1.14509 21.4484 1.84835 22.1516C2.19657 22.4999 2.60997 22.7761 3.06494 22.9645C3.51991 23.153 4.00754 23.25 4.5 23.25H19.5C20.4946 23.25 21.4484 22.8549 22.1516 22.1516C22.8549 21.4484 23.25 20.4946 23.25 19.5V4.5C23.25 4.00754 23.153 3.51991 22.9645 3.06494C22.7761 2.60997 22.4999 2.19657 22.1516 1.84835C21.8034 1.50013 21.39 1.22391 20.9351 1.03545C20.4801 0.846997 19.9925 0.75 19.5 0.75H4.5ZM2.25 4.5C2.25 3.90326 2.48705 3.33097 2.90901 2.90901C3.33097 2.48705 3.90326 2.25 4.5 2.25H19.5C20.0967 2.25 20.669 2.48705 21.091 2.90901C21.5129 3.33097 21.75 3.90326 21.75 4.5V19.5C21.75 20.0967 21.5129 20.669 21.091 21.091C20.669 21.5129 20.0967 21.75 19.5 21.75H4.5C3.90326 21.75 3.33097 21.5129 2.90901 21.091C2.48705 20.669 2.25 20.0967 2.25 19.5V4.5Z" fill="white"/>
</g>
<defs>
<clipPath id="clip0_38_1867">
<rect width="24" height="24" fill="white"/>
</clipPath>
</defs>
</svg>
